<?xml version="1.0" standalone="no"?>
<!DOCTYPE svg PUBLIC "-//W3C//DTD SVG 20010904//EN"
 "http://www.w3.org/TR/2001/REC-SVG-20010904/DTD/svg10.dtd">
<svg version="1.0" xmlns="http://www.w3.org/2000/svg"
 width="643.000000pt" height="253.000000pt" viewBox="0 0 643.000000 253.000000"
 preserveAspectRatio="xMidYMid meet">

<g transform="translate(0.000000,253.000000) scale(0.100000,-0.100000)"
fill="#000000" stroke="none">
<path d="M1109 2066 c-2 -2 -53 -9 -113 -16 -372 -39 -574 -174 -660 -440 -29
-89 -36 -241 -36 -755 l0 -515 413 2 412 3 3 182 2 183 -212 2 -213 3 -3 325
c-4 404 6 463 93 539 43 37 133 81 167 81 13 0 29 5 35 11 5 5 75 13 157 16
l146 6 0 189 0 188 -93 0 c-52 0 -96 -2 -98 -4z"/>
<path d="M3716 1594 c-55 -56 -20 -134 61 -134 55 0 88 37 79 90 -11 68 -90
93 -140 44z"/>
<path d="M5589 1591 c-31 -32 -35 -50 -17 -84 17 -34 39 -46 81 -47 50 0 77
28 77 79 0 77 -85 108 -141 52z"/>
<path d="M2590 1500 l0 -69 88 -3 87 -3 0 -157 c0 -142 -2 -159 -21 -185 -31
-42 -99 -72 -166 -73 l-58 0 0 -71 0 -72 99 6 c83 4 110 10 157 34 125 62 144
118 144 436 l0 227 -165 0 -165 0 0 -70z"/>
<path d="M4470 1500 l0 -69 83 -3 82 -3 0 -166 c0 -153 -2 -169 -20 -189 -31
-35 -100 -60 -166 -60 l-59 0 0 -71 0 -72 103 5 c57 3 112 10 123 16 10 6 36
19 57 28 51 23 86 71 108 152 16 55 19 103 19 284 l0 218 -165 0 -165 0 0 -70z"/>
<path d="M4028 1458 c-3 -52 -4 -53 -38 -58 l-35 -5 0 -60 0 -60 35 -5 35 -5
3 -145 c3 -187 16 -218 108 -255 26 -10 62 -15 95 -13 l54 3 0 55 c0 51 -2 55
-25 58 -86 10 -102 44 -98 199 l3 98 58 3 57 3 0 64 0 65 -44 0 c-69 0 -76 5
-76 61 l0 49 -64 0 -65 0 -3 -52z"/>
<path d="M5906 1494 c-3 -9 -6 -33 -6 -55 0 -38 -1 -39 -35 -39 l-35 0 0 -65
0 -65 35 0 35 0 0 -126 c0 -185 19 -234 106 -276 30 -14 58 -18 100 -16 l59 3
3 56 3 56 -46 5 c-73 9 -75 12 -75 164 l0 134 55 0 55 0 0 65 0 65 -55 0 -55
0 0 55 0 55 -69 0 c-54 0 -70 -4 -75 -16z"/>
<path d="M3195 1401 c-117 -29 -177 -117 -178 -261 -1 -73 3 -93 27 -143 15
-32 43 -70 61 -84 58 -46 193 -80 210 -53 3 6 14 10 24 10 10 0 31 10 46 21
22 18 29 20 36 8 5 -8 9 -17 9 -21 0 -5 32 -8 70 -8 l70 0 0 265 0 265 -70 0
c-49 0 -70 -4 -70 -12 0 -7 -5 -20 -10 -28 -8 -12 -13 -11 -33 8 -40 38 -117
51 -192 33z m183 -155 c27 -24 52 -78 52 -111 0 -64 -53 -129 -115 -141 -130
-24 -215 142 -127 244 45 51 137 55 190 8z"/>
<path d="M5075 1401 c-115 -30 -185 -127 -185 -257 0 -138 68 -242 183 -276
32 -10 65 -18 75 -18 25 0 84 22 115 43 29 19 47 16 47 -9 0 -11 15 -14 65
-14 l65 0 0 265 0 265 -65 0 c-57 0 -65 -2 -65 -19 0 -29 -21 -31 -57 -4 -35
27 -123 39 -178 24z m195 -168 c96 -122 -28 -293 -164 -228 -49 23 -80 85 -74
147 6 62 33 99 89 119 38 15 48 15 86 2 24 -8 52 -26 63 -40z"/>
<path d="M3710 1135 l0 -265 70 0 70 0 0 265 0 265 -70 0 -70 0 0 -265z"/>
<path d="M5580 1135 l0 -265 70 0 70 0 0 265 0 265 -70 0 -70 0 0 -265z"/>
</g>
</svg>
